<svg xmlns="http://www.w3.org/2000/svg" width="43.046" height="20.02" viewBox="0 0 43.046 20.02"><defs><style>.a{fill:#1fb5d0;}</style></defs><path class="a" d="M262.088-567.749c.644-1.238,2.237-5.2,3.33-7.887a12.686,12.686,0,0,0,.778-3.2l34.159-.548c-.551,2.435-2.586,3.808-5.849,3.874-6.239.126-12.479.179-18.719.267-1.981.028-3.961.071-6.172.111-1.5,7.193-5.446,12.678-12.306,15.768" transform="translate(-257.309 579.384)"/><path class="a" d="M289.249-573.418c-1.237,2.243-2.716,3.6-4.823,3.7-4.723.232-9.457.246-14.224.349.676-3.787.714-3.838,4.034-3.885,4.874-.068,9.749-.11,15.014-.167" transform="translate(-257.309 579.384)"/><path class="a" d="M266.864-563.866c1.016-2.965,3.02-3.96,5.953-3.594a32.148,32.148,0,0,0,4.583-.06c-.963,3.408-4.387,4.566-10.536,3.654" transform="translate(-257.309 579.384)"/></svg>